<svg xmlns="http://www.w3.org/2000/svg" viewBox="89 118 303 326" role="img" aria-label="NRGY logo"><g fill="#1F3042" fill-rule="evenodd"><path transform="scale(0.125) translate(0 3976) scale(0.1 -0.1)" d="M16850 29024 c-429 -39 -1211 -171 -1601 -270 -737 -186 -1482 -562 -2014 -1015 -99 -85 -237 -199 -305 -254 -325 -261 -618 -618 -942 -1145 -396 -645 -664 -1451 -753 -2270 -33 -294 -55 -8696 -24 -8978 67 -620 452 -776 1663 -671 481 42 776 322 863 819 15 87 17 453 23 4260 7 4340 7 4275 50 4536 256 1529 1335 2432 3095 2589 349 31 402 37 490 60 478 121 565 403 506 1642 -28 587 -296 765 -1051 697z M26030 28996 c-706 -127 -1302 -580 -1545 -1174 -162 -397 -163 -434 -165 -3387 -1 -3165 -86 -3817 -646 -4945 -326 -655 -653 -1058 -1292 -1593 -471 -393 -1224 -719 -2062 -892 -963 -199 -1205 -491 -1187 -1435 18 -929 203 -1195 832 -1195 944 2 2016 254 2865 676 621 308 967 530 1368 879 90 78 230 196 310 262 381 312 479 416 815 863 592 788 1046 1730 1276 2650 162 649 230 1059 276 1670 8 110 24 300 35 423 37 406 41 678 47 2902 8 3195 -3 3659 -89 3915 -101 303 -432 453 -838 381z"/></g><g fill="#1F3042"><path d="M109.96186440677965 428.46610169491527Q108.19067796610169 428.46610169491527 106.97881355932202 427.25423728813564Q105.76694915254237 426.04237288135596 105.76694915254237 424.271186440678V368.6186440677966Q105.76694915254237 366.10169491525426 107.53813559322033 364.2838983050848Q109.3093220338983 362.46610169491527 111.82627118644068 362.46610169491527H113.03813559322033Q114.62288135593221 362.46610169491527 115.92796610169492 363.2118644067797Q117.23305084745762 363.95762711864404 118.16525423728814 365.2627118644068L154.0550847457627 417.09322033898303V366.7542372881356Q154.0550847457627 364.9830508474576 155.26694915254237 363.72457627118644Q156.47881355932202 362.46610169491527 158.25 362.46610169491527Q160.02118644067798 362.46610169491527 161.27966101694915 363.72457627118644Q162.53813559322032 364.9830508474576 162.53813559322032 366.7542372881356V422.40677966101697Q162.53813559322032 424.9237288135593 160.72033898305085 426.6949152542373Q158.90254237288136 428.46610169491527 156.385593220339 428.46610169491527H155.26694915254237Q153.77542372881356 428.46610169491527 152.47033898305085 427.76694915254234Q151.16525423728814 427.06779661016947 150.32627118644066 425.9491525423729L114.25 373.83898305084745V424.271186440678Q114.25 426.04237288135596 112.9915254237288 427.25423728813564Q111.73305084745762 428.46610169491527 109.96186440677965 428.46610169491527Z M188.54661016949152 428.46610169491527Q186.77542372881356 428.46610169491527 185.56355932203388 427.25423728813564Q184.35169491525423 426.04237288135596 184.35169491525423 424.271186440678V367.22033898305085Q184.35169491525423 365.4491525423729 185.56355932203388 364.1906779661017Q186.77542372881356 362.93220338983053 188.54661016949152 362.93220338983053H210.26694915254237Q219.12288135593218 362.93220338983053 224.71610169491524 365.4491525423729Q230.3093220338983 367.96610169491527 232.96610169491524 372.20762711864404Q235.62288135593218 376.4491525423729 235.62288135593218 381.85593220338984Q235.62288135593218 387.2627118644068 232.59322033898303 391.92372881355936Q229.56355932203388 396.58474576271186 223.41101694915253 398.728813559322Q227.32627118644066 399.7542372881356 229.65677966101694 402.41101694915255Q231.98728813559322 405.06779661016947 233.15254237288136 408.4237288135593Q234.3177966101695 411.77966101694915 234.6906779661017 414.9025423728814Q235.06355932203388 418.02542372881356 235.06355932203388 419.9830508474576V424.271186440678Q235.06355932203388 426.04237288135596 233.85169491525423 427.25423728813564Q232.63983050847457 428.46610169491527 230.8686440677966 428.46610169491527Q228.91101694915253 428.46610169491527 227.74576271186442 427.3008474576271Q226.58050847457628 426.135593220339 226.58050847457628 424.271186440678V421.47457627118644Q226.58050847457628 419.14406779661016 226.25423728813558 415.97457627118644Q225.9279661016949 412.8050847457627 224.62288135593218 409.728813559322Q223.3177966101695 406.6525423728814 220.3813559322034 404.64830508474574Q217.4449152542373 402.64406779661016 212.13135593220338 402.64406779661016H192.83474576271186V424.271186440678Q192.83474576271186 426.04237288135596 191.5762711864407 427.25423728813564Q190.3177966101695 428.46610169491527 188.54661016949152 428.46610169491527ZM192.83474576271186 394.6271186440678H209.70762711864407Q217.53813559322032 394.6271186440678 222.33898305084745 391.5508474576271Q227.13983050847457 388.47457627118644 227.13983050847457 382.50847457627117Q227.13983050847457 379.0593220338983 225.5550847457627 376.4491525423729Q223.97033898305085 373.83898305084745 220.0550847457627 372.39406779661016Q216.13983050847457 370.9491525423729 209.2415254237288 370.9491525423729H192.83474576271186Z M283.25847457627117 428.93220338983053Q273.47033898305085 428.93220338983053 266.10593220338984 424.6440677966102Q258.74152542372883 420.35593220338984 254.63983050847457 412.85169491525426Q250.53813559322035 405.3474576271186 250.53813559322035 395.5593220338983Q250.53813559322035 388.00847457627117 253.0550847457627 381.8093220338983Q255.5720338983051 375.6101694915254 260.0 371.18220338983053Q264.42796610169495 366.7542372881356 270.3008474576271 364.37711864406776Q276.1737288135593 362.0 282.978813559322 362.0Q290.9025423728814 362.0 296.35593220338984 363.95762711864404Q301.8093220338983 365.91525423728814 306.1906779661017 368.7118644067797Q306.8432203389831 369.08474576271186 307.4491525423729 369.92372881355936Q308.0550847457627 370.7627118644068 308.0550847457627 372.06779661016947Q308.0550847457627 373.5593220338983 307.02966101694915 374.72457627118644Q306.0042372881356 375.8898305084746 304.1398305084746 375.8898305084746Q303.114406779661 375.8898305084746 302.18220338983053 375.4237288135593Q298.0805084745763 373.0 293.6991525423729 371.60169491525426Q289.3177966101695 370.20338983050846 283.91101694915255 370.20338983050846Q276.9194915254237 370.20338983050846 271.27966101694915 373.1398305084746Q265.6398305084746 376.0762711864407 262.3305084745763 381.71610169491527Q259.021186440678 387.35593220338984 259.021186440678 395.5593220338983Q259.021186440678 402.73728813559325 262.00423728813564 408.47033898305085Q264.98728813559325 414.20338983050846 270.67372881355936 417.5593220338983Q276.3601694915254 420.91525423728814 284.3771186440678 420.91525423728814Q289.3177966101695 420.91525423728814 293.4194915254237 419.75Q297.521186440678 418.58474576271186 300.6906779661017 416.8135593220339V399.9406779661017H285.3093220338983Q283.72457627118644 399.9406779661017 282.60593220338984 398.8220338983051Q281.48728813559325 397.70338983050846 281.48728813559325 396.1186440677966Q281.48728813559325 394.53389830508473 282.60593220338984 393.41525423728814Q283.72457627118644 392.29661016949154 285.3093220338983 392.29661016949154H303.67372881355936Q305.5381355932204 392.29661016949154 306.8432203389831 393.60169491525426Q308.14830508474574 394.90677966101697 308.14830508474574 396.771186440678V417.93220338983053Q308.14830508474574 419.8898305084746 307.1694915254237 421.4279661016949Q306.1906779661017 422.96610169491527 304.60593220338984 423.7118644067797Q300.0381355932204 426.04237288135596 294.67796610169495 427.48728813559325Q289.3177966101695 428.93220338983053 283.25847457627117 428.93220338983053Z M349.5381355932203 428.46610169491527Q347.76694915254234 428.46610169491527 346.50847457627117 427.25423728813564Q345.25 426.04237288135596 345.25 424.271186440678V400.5L322.9703389830508 369.271186440678Q322.22457627118644 368.0593220338983 322.22457627118644 366.7542372881356Q322.22457627118644 364.9830508474576 323.3898305084746 363.72457627118644Q324.5550847457627 362.46610169491527 326.32627118644064 362.46610169491527Q328.6567796610169 362.46610169491527 330.05508474576266 364.6101694915254L349.5381355932203 392.9491525423729L369.0211864406779 364.6101694915254Q370.4194915254237 362.46610169491527 372.75 362.46610169491527Q374.614406779661 362.46610169491527 375.77966101694915 363.72457627118644Q376.94491525423723 364.9830508474576 376.8516949152542 366.7542372881356Q376.8516949152542 368.0593220338983 376.1059322033898 369.271186440678L353.7330508474576 400.5V424.271186440678Q353.7330508474576 426.04237288135596 352.521186440678 427.25423728813564Q351.3093220338983 428.46610169491527 349.5381355932203 428.46610169491527Z"/></g></svg>
