<svg xmlns="http://www.w3.org/2000/svg" viewBox="123 118 229 215" role="img" aria-label="NRGY logo"><g fill="#FFFFFF" fill-rule="evenodd"><path transform="scale(0.125) translate(0 3976) scale(0.1 -0.1)" d="M16850 29024 c-429 -39 -1211 -171 -1601 -270 -737 -186 -1482 -562 -2014 -1015 -99 -85 -237 -199 -305 -254 -325 -261 -618 -618 -942 -1145 -396 -645 -664 -1451 -753 -2270 -33 -294 -55 -8696 -24 -8978 67 -620 452 -776 1663 -671 481 42 776 322 863 819 15 87 17 453 23 4260 7 4340 7 4275 50 4536 256 1529 1335 2432 3095 2589 349 31 402 37 490 60 478 121 565 403 506 1642 -28 587 -296 765 -1051 697z M26030 28996 c-706 -127 -1302 -580 -1545 -1174 -162 -397 -163 -434 -165 -3387 -1 -3165 -86 -3817 -646 -4945 -326 -655 -653 -1058 -1292 -1593 -471 -393 -1224 -719 -2062 -892 -963 -199 -1205 -491 -1187 -1435 18 -929 203 -1195 832 -1195 944 2 2016 254 2865 676 621 308 967 530 1368 879 90 78 230 196 310 262 381 312 479 416 815 863 592 788 1046 1730 1276 2650 162 649 230 1059 276 1670 8 110 24 300 35 423 37 406 41 678 47 2902 8 3195 -3 3659 -89 3915 -101 303 -432 453 -838 381z"/></g></svg>
